<svg width="476" height="400" viewBox="0 0 476 400" fill="none" xmlns="http://www.w3.org/2000/svg">
<path d="M123.122 393.1C113.073 391.064 -7.68637 372.73 1.2037 237.508C10.0938 102.285 21.2498 61.6201 68.2006 46.7439C115.151 31.8677 229.273 -38.5352 318.826 28.4055C342.071 45.7822 365.758 62.5959 388.389 80.7842C419.483 105.775 451.454 134.641 466.734 172.453C473.916 190.224 476.623 209.397 474.625 228.467C472.284 250.784 468.99 272.491 462.99 294.235C460.95 301.638 458.909 309.036 456.863 316.439C455.639 320.882 454.405 325.353 452.477 329.537C440.054 356.517 424.395 374.218 398.147 388.582C375.37 401.047 347.147 400.719 321.988 399.349C221.936 393.893 170.917 402.783 123.127 393.105L123.122 393.1Z" fill="#F7FAFF"/>
<path d="M333.75 257.998H151.044C149.324 257.998 147.305 257.325 146.892 255.012L127.125 144.411C126.976 142.532 128.491 140.921 130.411 140.921H356.443C358.362 140.921 359.877 142.527 359.728 144.411L337.967 255.012C337.489 256.826 335.47 257.998 333.75 257.998Z" fill="white"/>
<path fill-rule="evenodd" clip-rule="evenodd" d="M145.816 317.896C146.063 317.931 146.309 317.943 146.542 317.931C150.705 317.707 155.014 314.706 155.08 310.199C155.146 305.956 151.512 302.956 147.441 302.89C143.277 302.824 139.008 305.705 138.519 310.054C138.043 314.31 141.652 317.68 145.709 317.892C145.745 317.893 145.781 317.895 145.816 317.896ZM147.419 312.952C147.674 312.918 147.832 312.807 148.168 312.34C148.564 311.785 148.644 311.032 148.564 310.384C148.432 309.248 147.454 307.701 146.132 307.833C146.097 307.837 146.074 307.837 146.059 307.835C146.049 307.843 146.036 307.852 146.021 307.862C146.004 307.873 145.984 307.885 145.961 307.899C145.736 308.032 145.564 308.243 145.419 308.455C144.982 309.063 144.916 309.922 145.049 310.622C145.297 311.958 146.201 312.744 147.419 312.952Z" fill="#6A84A8"/>
<path fill-rule="evenodd" clip-rule="evenodd" d="M164.372 285.443H316.357L316.344 285.456C320.599 285.456 315.669 288.417 313.687 288.417H153.944C153.419 288.417 152.867 288.435 152.303 288.454H152.301C151.811 288.47 151.311 288.486 150.811 288.492C162.028 290.384 170.76 300.029 169.725 311.983C168.694 323.918 157.803 332.642 146.146 332.615C134.079 332.576 123.703 322.835 123.796 310.596C123.888 297.801 134.845 288.695 147.045 288.153L147.058 288.14C147.115 288.137 147.172 288.136 147.227 288.135C142.455 286.791 141.619 281.464 140.898 276.868L140.898 276.868C140.742 275.879 140.592 274.924 140.41 274.05C140.002 272.09 139.59 270.131 139.178 268.173L139.178 268.171C137.84 261.811 136.503 255.455 135.321 249.069L119.62 164.032L118.971 160.699C118.028 155.852 117.085 151.018 116.142 146.184L116.116 146.055C116.023 145.564 115.905 145.049 115.784 144.52C115.436 143 115.06 141.361 115.153 139.838L107.988 101.031C104.582 101.07 101.174 101.106 97.7649 101.143C93.8161 101.186 89.8658 101.229 85.9154 101.275C81.6727 101.314 86.6027 98.3405 88.5721 98.3141C92.5584 98.2676 96.5481 98.2244 100.539 98.1813C104.488 98.1385 108.439 98.0958 112.389 98.0498C112.417 98.0498 112.448 98.0496 112.482 98.0494C112.993 98.046 114.129 98.0386 114.253 98.671C116.406 110.35 118.561 122.026 120.717 133.7C123.171 133.05 126.039 133.107 128.542 133.157C129.177 133.169 129.789 133.181 130.365 133.181H293.94C299.719 133.181 305.545 133.057 311.385 132.933C323.11 132.683 334.894 132.431 346.478 133.181C354.498 133.708 353.163 140.055 351.995 145.608C351.874 146.186 351.754 146.757 351.646 147.31C350.396 153.747 349.142 160.18 347.889 166.613C346.638 173.034 345.387 179.454 344.139 185.878L335.535 230.09C334.572 234.982 333.622 239.875 332.673 244.767L332.666 244.8C332.6 245.139 332.539 245.477 332.479 245.814C332.065 248.103 331.667 250.311 329.812 252.017C326.671 254.902 320.743 254.631 316.048 254.417C314.915 254.365 313.853 254.317 312.92 254.317H152.173C151.286 254.317 150.316 254.363 149.305 254.411H149.303C147.268 254.508 145.066 254.613 143.04 254.366C144.046 259.437 145.123 264.496 146.2 269.556L146.2 269.559C146.835 272.54 147.469 275.521 148.089 278.504C148.856 282.231 149.979 284.94 153.984 285.443C156.223 285.726 158.611 285.63 160.956 285.535H160.957C162.113 285.489 163.26 285.443 164.372 285.443ZM163.064 307.688C161.581 299.228 154.624 293.725 146.356 293.107C124.716 294.294 126.086 327.87 147.468 327.606C157.751 327.474 164.769 317.482 163.064 307.688ZM142.714 248.13C143.807 251.059 145.264 251.002 147.33 250.922H147.332C147.689 250.908 148.064 250.893 148.459 250.893H323.124C323.657 250.893 324.053 250.909 324.35 250.921C324.864 250.941 325.081 250.95 325.192 250.845C325.273 250.769 325.297 250.633 325.34 250.398C325.384 250.157 325.447 249.812 325.608 249.321C326.088 247.864 326.335 246.259 326.578 244.68C326.696 243.91 326.814 243.145 326.957 242.408C329.521 229.244 332.082 216.083 334.642 202.922C337.203 189.761 339.764 176.6 342.328 163.435C342.83 160.842 343.335 158.248 343.839 155.655L343.84 155.653C344.346 153.053 344.852 150.453 345.355 147.852C345.483 147.192 345.683 146.459 345.892 145.697L345.892 145.696C346.33 144.096 346.802 142.373 346.703 140.94C346.359 135.781 341.206 136.186 337.042 136.513C336.096 136.587 335.2 136.657 334.424 136.657H130.179C129.509 136.657 128.742 136.6 127.942 136.539C126.234 136.411 124.375 136.27 122.989 136.657C122.504 136.79 122.138 136.837 121.871 136.871C121.597 136.906 121.425 136.928 121.329 137.015L121.927 140.253C123.346 147.936 124.765 155.619 126.183 163.301L126.789 166.416C127.985 172.559 129.182 178.701 130.378 184.847L142.679 248.045C142.689 248.066 142.698 248.088 142.707 248.11L142.709 248.105C142.711 248.113 142.713 248.122 142.714 248.13Z" fill="#6A84A8"/>
<path d="M295.741 307.264C295.805 307.294 295.858 307.301 295.901 307.291C295.85 307.271 295.801 307.25 295.755 307.229C295.754 307.232 295.752 307.235 295.751 307.238C295.748 307.247 295.745 307.255 295.741 307.264Z" fill="#6A84A8"/>
<path fill-rule="evenodd" clip-rule="evenodd" d="M297.365 316.908C300.844 316.257 304.469 314.291 304.937 310.502C305.453 306.352 301.831 303.656 297.998 303.63C294.178 303.59 289.262 305.837 288.574 310C287.889 314.123 291.137 316.638 294.787 317.091C294.957 317.123 295.131 317.139 295.301 317.141C295.354 317.144 295.407 317.148 295.46 317.151C296.001 317.178 296.69 317.097 297.365 316.908ZM297.901 313.72C297.934 313.718 297.966 313.716 297.998 313.714C297.963 313.716 297.93 313.718 297.898 313.72C297.899 313.72 297.9 313.72 297.901 313.72ZM297.615 313.674C297.652 313.632 297.684 313.58 297.707 313.516C297.772 313.336 297.886 313.165 298.003 312.99C298.127 312.806 298.254 312.616 298.329 312.406C298.619 311.599 298.619 310.714 298.395 309.894C298.183 309.101 297.76 308.388 297.139 307.846C296.932 307.665 296.578 307.539 296.243 307.418C296.124 307.376 296.008 307.334 295.901 307.291C296.178 307.229 296.029 306.493 295.755 307.229C295.63 307.171 295.527 307.109 295.46 307.04C295.571 307.158 295.664 307.228 295.741 307.264C295.682 307.411 295.578 307.555 295.474 307.698C295.379 307.83 295.284 307.962 295.223 308.097C294.866 308.89 294.813 309.762 294.985 310.608C295.251 311.866 296.269 313.367 297.615 313.674Z" fill="#6A84A8"/>
<path fill-rule="evenodd" clip-rule="evenodd" d="M297.998 288.919C298.505 288.897 298.887 288.927 299.163 288.998C310.949 290.066 320.811 299.152 319.595 311.758C318.432 323.746 307.012 331.888 295.46 331.861C283.115 331.835 272.647 321.658 273.863 309.022C275.048 296.799 286.078 289.653 297.472 288.947C297.656 288.921 297.833 288.911 297.998 288.919ZM297.998 328.451C276.956 328.65 273.467 293.333 295.46 292.342C304.117 292.725 311.519 299.083 312.986 307.7C314.586 317.111 308.506 328.346 297.998 328.451Z" fill="#6A84A8"/>
<path d="M270.879 171.402C270.675 174.847 268.187 178.132 264.404 177.713C260.984 177.334 258.691 174.249 258.591 170.958C258.556 169.812 256.138 170.265 256.168 171.198C256.502 181.946 272.694 181.572 273.307 171.163C273.372 170.036 270.939 170.45 270.884 171.402H270.879Z" fill="#6A84A8"/>
<path d="M199.961 170.888C200.29 181.502 216.487 180.784 217.085 170.629C217.145 169.602 214.722 170.061 214.672 170.913C214.453 174.637 211.602 178.127 207.514 177.135C204.298 176.357 202.469 173.401 202.369 170.245C202.344 169.433 199.931 169.921 199.961 170.888Z" fill="#6A84A8"/>
<path d="M257.817 217.53C253.659 210.356 243.425 208.497 235.857 208.766C228.499 209.025 219.017 211.448 215.184 218.442C214.616 219.484 217.028 219.285 217.437 218.542C221.081 211.887 230.299 210.032 237.233 210.202C243.819 210.361 252.029 212.37 255.589 218.502C256.012 219.235 258.35 218.452 257.817 217.535V217.53Z" fill="#6A84A8"/>
<path d="M194.447 199.214C194.337 204.364 191.111 208.472 187.248 208.387C183.384 208.302 180.344 204.06 180.458 198.91C180.568 193.761 183.793 189.653 187.657 189.738C191.52 189.822 194.561 194.065 194.447 199.214Z" fill="#FF9C81"/>
<path d="M294.722 201.421C294.834 196.271 291.795 192.027 287.933 191.943C284.071 191.859 280.849 195.965 280.737 201.115C280.624 206.265 283.664 210.509 287.526 210.593C291.388 210.677 294.609 206.571 294.722 201.421Z" fill="#FF9C81"/>
<path d="M258.904 184.169C258.904 185.53 257.802 186.637 256.436 186.637C255.07 186.637 253.969 185.53 253.969 184.169C253.969 182.808 256.436 178.421 256.436 178.421C256.436 178.421 258.904 182.808 258.904 184.169Z" fill="#BBDFF5"/>
</svg>
